<?xml version="1.0" encoding="utf-8"?>
<!-- Generator: Adobe Illustrator 20.1.0, SVG Export Plug-In . SVG Version: 6.00 Build 0)  -->
<svg version="1.1" id="Layer_1" xmlns="http://www.w3.org/2000/svg" xmlns:xlink="http://www.w3.org/1999/xlink" x="0px" y="0px"
	 viewBox="0 0 750 750" style="enable-background:new 0 0 750 750;" xml:space="preserve">
<style type="text/css">
	.st0{fill:#8DD6EE;}
	.st1{fill:#FFFFFF;}
	.st2{fill:#EF4065;}
	.st3{fill:#F26722;}
	.st4{fill:#FDB515;}
	.st5{fill:#EBD3D2;}
	.st6{fill:#84AF40;}
	.st7{fill:#05A5A9;}
	.st8{fill:#0A5FA8;}
	.st9{fill:#7A5DA7;}
	.st10{fill:#9A7DB9;}
	.st11{fill:#AA7CAC;}
	.st12{fill:#B97BA0;}
	.st13{fill:#C87995;}
	.st14{fill:#D6788A;}
	.st15{fill:#E3757E;}
	.st16{fill:#F37372;}
	.st17{fill:#3C211A;}
	.st18{fill:#C2D798;}
	.st19{fill:#78A680;}
	.st20{fill:#1C859A;}
	.st21{fill:#344473;}
	.st22{fill:#48A2B7;}
	.st23{fill:#5D3B33;}
	.st24{fill:none;stroke:#D6788A;stroke-width:5;stroke-linecap:round;stroke-linejoin:round;stroke-miterlimit:10;}
	.st25{fill:#D67889;}
	.st26{fill:#E37583;}
	.st27{fill:#B97AA0;}
	.st28{fill:#2BA4C4;}
	.st29{fill:#D4587C;}
	.st30{fill:#D79DAF;}
	.st31{fill:#D6788B;}
	.st32{fill:#699033;}
</style>
<g>
	<path class="st16" d="M251.1,196.3c0.3-3.9-1.7-7.9-5-10c-3.3-2.1-7.8-2.2-11.1-0.2c-6.4,3.8-10.5,19.3-2.3,23.4
		C240,213.2,250.5,203.1,251.1,196.3z"/>
	<path class="st20" d="M448.2,77.6c-1.2-2.4-2.8-4.7-5-6.6c-11.7-10.3-32.6-17.5-48-12.6c-6.6,2.1-7.6,6.9-10.4,12.6
		c-4.6,9.6-9.9,18.9-16,27.7c-5.3,7.5-11.4,11.4-6.9,21.3c3.3,7.3,7.3,14.3,10.7,21.6c10.8,22.9,20.4,46.5,27.1,70.9
		c14.4,51.8,9.2,68.4,10.6,91.3c1.2,19.8,23.2-29.8,30.5-46c9-19.9,11.2-24.1,13.4-41c1.9-14.8,2.3-29.8,1.3-44.8
		c-1-16.3-1.9-32.6-2.7-48.8C452.3,109.2,454.4,90.6,448.2,77.6z"/>
	<path class="st21" d="M400.4,49.3c-2.7,0.1-4.4-2.8-3-5c3.8-6.2,7.8-12.3,12.4-18.3c0.9-1.2,1.9-2.3,3-3.2
		c11.1-9.3,23.5,2.7,28,14.2c2.4,6.2,3.9,12.7,4.9,19.3c0.4,2.8-2.6,4.8-5,3.5c-1.9-1-3.8-2.2-5.8-2.9c-10.8-4.1-22.4-7.7-34.2-7.5
		C400.6,49.3,400.5,49.3,400.4,49.3z M291.7,82c10.3-1.9,20.2-1.1,29.3,1.6c2,0.6,3.8-1.6,2.7-3.4c-0.1-0.3-0.3-0.5-0.4-0.8
		c-11.3-20-33.9-42.3-53.5-30.2c-13.7,8.5-13,25.5-12.7,42.9c0,1.8,2,2.9,3.5,2C270.3,88.6,280.7,84,291.7,82z M133.6,397.9
		c-16.6,7.2-33.9,14.6-45,3.7c-16.2-15.8,18-30.9,42.4-46.6c27.7-17.7,65.9-26.6,96.5-23.8c14.5,1.3,28.3,3.5,41.7,7.1
		c-10.8,8.3-17.9,21.1-20.3,35C209.9,371.9,172.8,380.9,133.6,397.9z M250.2,400.8c0.4,1.5-0.5,3-2,3.3
		c-33.2,7.8-64.7,21.1-93.2,39.8c-1.9,1.3-4.5-0.2-4.3-2.5c0.8-8.8,3.7-18.1,5.2-27.1c0.3-1.6,0.3-3.2,0.1-4.8
		c-0.6-4.3,2-8.5,6-10.2c25.6-10.8,56.1-11.8,83.7-11c1.4,0,2.5,1.1,2.6,2.5c0.2,1.6,0.4,3.2,0.7,4.8
		C249.4,397.4,249.8,399.1,250.2,400.8z M258.6,419.9c4.7,7.4,10.9,13.6,18,18.6c2.4,1.6,2,5.2-0.7,6.3c-21.3,9-42.2,16.4-60,22.6
		c-19.1,6.7-44.7,11.2-57.8-2c-1.6-1.6-1.3-4.3,0.6-5.5c29.1-19.9,61.7-34.2,96.1-41.7C256.3,417.9,257.8,418.6,258.6,419.9z"/>
	<path class="st22" d="M341.4,115.2c-1.3-1.7-2.6-3.2-4-4.7c-8.5-8.7-23.2-13.7-35-14.2c-25-1.2-42,13.2-53.2,33.8
		c-4.2,7.8-9.7,14.5-16,20.6c-13.5,13.1-29.9,23.5-40.7,39.2c-8.3,12-12.6,26.2-16.8,40.2c-2.4,8-4.8,16-7.2,24
		c-3.8,12.5-7.5,25-10.4,37.7c-1.6,6.9-2.9,13.8-3.9,20.8c-1.1,8.1-3.4,11.4,4.7,11.5c16.4,0.3,32.8-6.3,49.3-7.5
		c25.9-1.8,52.2,1.8,76.5,10.9c12.3,4.6,24,10.5,34.9,17.7c5.7,3.8,11.2,7.8,16.5,12.2c2.8,2.4,10,11.8,13.9,11.5
		c3-0.3,4.6-5,6.2-7.1c8-10.6,17.7-20,28.5-27.8c16.4-11.9,16.6-22.1,15.4-41.5c-1.3-20.4-5.3-40.5-10.6-60.2
		c-7.8-28.7-17.5-57-30.4-83.9C354,138.3,348.7,124.9,341.4,115.2z M231.7,177c6.2-3.6,14.3-3.5,20.3,0.4c6,3.8,9.7,11.1,9,18.2
		c-1.1,12.6-20.2,30.8-33.6,24.1C212.6,212.2,220,183.9,231.7,177z M301.4,279.9c-1.2,9.7-12.8,14.2-22.6,15.1
		c-16.3,1.6-32.9-0.8-48-7c-41.5-16.9-19.2-56.4,19-48.6c14.1,2.9,26.2,11.5,37.8,20C294.7,264.4,302.5,271.3,301.4,279.9z
		 M335.1,262.7c-46.9,2.7-63.9-73.7-57.6-107.3c1.6-8.3,4.3-15.8,8.3-22.1c11.5-17.9,28.1-7.2,38.5,5.7
		C339.4,157.7,379,260.1,335.1,262.7z M346.1,378.1c-5.8,11.8-8.2,22.2-9.2,28.7c-0.7,4.4-3.3,8.4-7.1,10.7
		c-9.4,5.9-19.3,11.2-29.3,16.2c-13.9-4.3-25.5-14.2-31.9-27.2c-0.2-1.1-0.7-2.2-1.4-3c-1.1-2.6-2-5.3-2.6-8.1
		c-4.8-20.4,4.3-44.9,25.2-50.3c8.1,3.2,16,7,23.9,11.7C324.7,363.2,335.4,370.6,346.1,378.1z"/>
	<path class="st23" d="M589.3,225.1c-4.7,0.8-9-2.6-9.3-7.3c-0.1-1.1,0.1-2.2,0.5-3.2c0.1-0.2,0-0.4-0.1-0.5
		c-12.2-13.2-35-7.7-50-1.4c-16.8,7.1-31.7,18.1-44.7,30.8c-11.6,11.3-22,23.9-31.4,37.2c-1.4,2,1,4.4,3,3c6.8-4.9,14-9.3,21.6-13
		c13.4-6.6,30-13.7,45.2-11.9c11.6,1.4,22.5,10.8,22,22.6c0,0.1,0,0.2,0.1,0.3c1.2,1.3,2,3,2.1,4.9c0.3,4.9-3.9,9-9,8.3
		c-3.1-0.4-5.7-2.7-6.5-5.7c-1-3.9,0.9-7.6,4.1-9.2c0.2-0.1,0.3-0.3,0.3-0.5c-0.5-4.9-4.4-9-9.2-10.9c-7.2-2.8-15.3-0.9-22.5,1.1
		c-11.6,3.3-22.7,8.2-33.1,14.4c-18.6,11.1-34.4,26.4-46.2,44.4c0,0,0,0,0,0.1c-0.3,0.7-0.7,1.4-1,2.1c-0.1,0.3,0,0.6,0.3,0.7
		c3.6,1.3,6.8,3.5,8.5,7c2.5,5.1,0.7,11.8-3.9,15c-4.4,3-10.8,2.5-14.8-1c-0.3-0.3-0.7-0.1-0.8,0.3c-1,6.1-2.5,12.3-5.6,17.7
		c-3.3,5.6-8.8,10.3-15.3,11.1c-3.2,0.4-6.7-0.1-9.4,1.6c-2,1.3-3.1,3.5-4.2,5.6c-5.9,12.5-12,26.4-24.6,32.1
		c-2.5,1.1-5.8,1.7-7.3-1.2c-0.6-1.1-0.7-2.3-0.5-3.5c4.2-22.2,24.7-55.7,41.3-72.4c7-7,16-12.3,25.8-13.3c0.2,0,0.3-0.1,0.4-0.2
		c1.2-2.3,2.9-7.6,4.2-9.6c7-14.1,14.4-24.2,23.2-37.4c17.7-26.5,38.9-52,66.3-69c21.2-13.2,60.4-28.2,79.3-5
		c0.1,0.1,0.2,0.2,0.3,0.2c4.3,0.2,7.8,3.9,7.5,8.5C595.6,221.5,592.8,224.5,589.3,225.1z"/>
	<path class="st6" d="M601.5,722.2c1.7-13.6,4.6-27.3,6.1-41.2c8-8.8,15.4-18.5,23-27.6c10.7-12.8,21.7-26,27.8-41.6
		c7-17.9,7.2-37.6,7.2-56.8c-20.6,18.2-42,37.9-53,62.5c-1,2.2-4.3,1.7-4.6-0.7c-0.8-6.3-1.8-12.6-3.2-18.9
		c-4-17.9-11.4-35.1-23.1-49.1c3.8-10.3,0.9-24.1-6.6-33.5c-10.9-13.7-24.2-25.5-28.5-43.3c-0.9-3.9-5.7-5.3-8.7-2.8
		c-12.5,10.5-27,21.7-39.9,31.7c-3.1,2.4-2.6,7.3,0.9,9c9.7,4.7,17.6,13.4,24.8,21.8c7.1,8.4,14.7,17,24.4,22.6
		c7.1,4,18.4,6.9,26,3.5c2,2.4,3.8,4.9,5.5,7.7c14.4,22.8,18.1,50.8,18.2,77.3c0.1,9-0.3,18-1,26.9c-0.1,2-2.8,2.3-3.5,0.4
		c-3.9-11.2-9.6-21.7-17.5-30.8c-15.2-17.3-38.5-27.3-61.4-24.1c-10.6-8-25-11.9-37.9-9.7c-35.1,5.9,1.4,19.5-4.7,31.5
		c-4.1,8.1-8.2,16.2-12.2,24.3c-0.8,1.5-1.6,3.3,0.1,4.8c0.6,0.6,1.5,1,2.4,1.1c12.8,2.1,26-2.6,36.2-10.6
		c9.8-7.7,17.1-18.3,23.1-29.3c0.2-0.4,0.4-0.8,0.6-1.2c17.9-0.4,35.4,8.9,46.9,22.7c14.9,17.9,21.2,42.1,19.6,64.8
		c-0.3,4.4-2.3,16.5,5.1,17C600.8,731.1,601.1,725.1,601.5,722.2z"/>
	<path class="st4" d="M292.7,178.6c1.4-17.4,9.5-36,25.5-15.9c15.3,19.2,22.9,44.2,21,68.6c-0.9,11.3-7.8,19.7-19.9,13.1
		c-18-10-26.5-35.8-26.9-54.9C292.3,185.9,292.4,182.3,292.7,178.6z M241,279.8c8.4,3.4,17.7,4.8,26.8,3.9c5.4-0.5,11.9-3,12.6-8.4
		c0.6-4.8-3.8-8.6-7.7-11.4c-6.5-4.7-13.2-9.6-21.1-11.1C230.2,248.3,217.8,270.3,241,279.8z M591.9,410.5
		c13-10.1,27.1-21.9,29.1-38.3c2.4-19.8-16-38-35.9-39.6c-19.8-1.6-38.9,10.4-50.6,26.5c-9.5-9-14.1-24.4-26.7-27.7
		c-11.7-3-23.4,7.6-26.2,19.3c-2.8,11.8,0.8,24,4.3,35.6l12.8,41.8c1.1,3.6-2.6,6.9-6,5.2c-12.1-6-20.6-19.2-28.7-30.7
		c-10.4-14.7-27-29.7-44.4-22.7c-6.6,2.6-11.6,8.1-14.4,14.6c-5.4,12.7-2.5,26.5,2.8,38.7c-10.7-1.2-21.8-2.4-31.8,1.5
		c-10,3.9-18.2,14.5-15.6,24.9c1.7,6.6,7.2,11.5,12.9,15.3c14.3,9.5,31.7,14.3,48.9,13.6c5.2-0.2,10.8-0.9,15.3,2.5
		c2.2,1.7,3.5,4.4,3,7.1c-0.6,3.5-3.8,4.9-6.7,5.8c-16.1,5-33.9,3-49.9,8.6c-16,5.5-29.8,24.6-20.6,38.8c5.5,8.6,17.4,11.2,27.3,8.9
		c9.9-2.3,18.5-8.5,26.7-14.6C476.4,501.4,533.5,455.7,591.9,410.5z M464,640.8c-5.3,7-8.4,10.9-12.9,17.9
		c-2.2,3.3-6.4,4.4-10.1,2.9c-19.9-7.9-38.9-16.9-38.9-22.5c0-5.1,31.8-24.5,41.4-26.4c8-1.6,15.1,13,21.1,22
		C465.4,636,466.9,637.1,464,640.8z"/>
</g>
</svg>
