<?xml version="1.0" encoding="utf-8"?>
<!-- Generator: Adobe Illustrator 22.0.1, SVG Export Plug-In . SVG Version: 6.00 Build 0)  -->
<svg version="1.1" id="Calque_1" xmlns="http://www.w3.org/2000/svg" xmlns:xlink="http://www.w3.org/1999/xlink" x="0px" y="0px"
	 viewBox="0 0 432 432" style="enable-background:new 0 0 432 432;" xml:space="preserve">
<style type="text/css">
	.st0{fill:#1A1A1A;}
	.st1{fill:#46B3AF;}
	.st2{fill:#4C87C2;}
	.st3{fill:#89A667;}
	.st4{fill:#90952B;}
	.st5{fill:#3D3611;}
	.st6{fill:#A3936E;}
	.st7{fill:#693C6B;}
	.st8{fill:#7C5E82;}
	.st9{fill:#421653;}
	.st10{fill:#E6E6E6;}
	.st11{fill:#EDD1D1;}
	.st12{fill:#B1956B;}
	.st13{fill:#F2F2F2;}
	.st14{fill:#FFFFFF;}
	.st15{fill:#E6A8A1;}
	.st16{fill:#F0A967;}
	.st17{fill:#36302B;}
	.st18{fill:#E3AAB7;}
	.st19{fill:#CF8495;}
	.st20{fill:#DF7087;}
	.st21{fill:#91AF27;}
</style>
<g>
	<g>
		<path class="st0" d="M293.6,226.6c-2.7,0-4.3,0.2-5,0.9c-1.9,1.8,1.2,9,5,9c3.8,0,7-7.2,5-9C297.9,226.8,296.3,226.6,293.6,226.6z
			"/>
		<path class="st0" d="M266.5,212.3c-5.9-0.7-12.2,1.4-17,6.2c-2.6,2.6-4.3,5.6-5.3,8.7c-2.1,6.5-0.8,13.7,4,18.5
			c7.1,7.1,17.8,5.1,25.7-2.8c7.9-7.9,9.9-18.6,2.8-25.7C273.8,214.4,270.2,212.8,266.5,212.3z M271.4,236.7
			c-3.7,4.3-9,5.7-12.9,2.4c-3.9-3.3-4-9.5-0.4-13.8c3.7-4.3,9.8-5,13.7-1.7S275.1,232.4,271.4,236.7z"/>
		<path class="st0" d="M261.9,228.6c-1.6,1.9-1.6,4.7,0.2,6.1c1.7,1.5,4.1,0.8,5.7-1.1c1.6-1.9,1.9-4.3,0.2-5.8
			C266.3,226.3,263.5,226.7,261.9,228.6z"/>
		<path class="st0" d="M338.2,218.5c-4.8-4.8-11.2-6.9-17-6.2c-3.8,0.5-7.4,2-10.1,4.8c-7.1,7.1-5.1,17.8,2.8,25.7
			c7.9,7.9,18.6,9.9,25.7,2.8c4.8-4.8,6.1-11.9,4-18.5C342.5,224.1,340.7,221.1,338.2,218.5z M329.1,239.1
			c-3.9,3.3-9.2,1.9-12.9-2.4c-3.7-4.3-4.3-9.7-0.4-13.1c3.9-3.3,10-2.6,13.7,1.7C333.1,229.6,332.9,235.7,329.1,239.1z"/>
		<path class="st0" d="M319.6,227.8c-1.7,1.5-1.4,3.9,0.2,5.8c1.6,1.9,4,2.5,5.7,1.1c1.7-1.5,1.8-4.2,0.2-6.1
			C324.1,226.7,321.3,226.3,319.6,227.8z"/>
		<path class="st0" d="M224.3,330.7c0.2-0.4,0.4-0.8,0.7-1.2c0,0,0,0,0,0c0.2-0.4,0.5-0.7,0.8-1.1c3.2-4.6,8-7.9,13.7-9.6
			c2.1-0.6,4.3-1,6.5-1.1c0.5-2.4,1.1-4.6,1.8-6.8c-5.9-2.4-11.5-5.5-16.8-9.1c0.5-0.5,1-1.1,1.5-1.6c5,3.4,10.4,6.3,16,8.7
			c6.2,2.6,12.7,4.4,19.4,5.5c4.1,0.7,8.4,1,12.3-0.3c3.9-1.3,7.4-4.7,7.8-8.8c0.4-3.8-1.9-7.4-4.3-10.4
			c-4.3-5.5-9.3-10.5-14.4-15.2c-1.5-1.4-3-2.8-4.5-4.1c-1.1-1-2.2-2-3.3-3c0.7-0.4,1.3-0.8,1.9-1.1l2.8,2.6c1.6,1.5,3.3,3,4.9,4.6
			c6.8-3.9,14.4-5.7,22.6-5.7c8.1,0,15.8,1.8,22.6,5.7c1.6-1.5,3.3-3.1,4.9-4.6l2.8-2.6c0.6,0.4,1.3,0.8,1.9,1.1c-1.1,1-2.2,2-3.3,3
			c-1.5,1.4-3,2.7-4.5,4.1c-5.1,4.8-10.1,9.7-14.4,15.2c-2.4,3-4.6,6.6-4.3,10.4c0.4,4.1,3.9,7.5,7.8,8.8c3.9,1.3,8.2,1,12.3,0.3
			c6.6-1.1,13.2-2.9,19.4-5.5c5.6-2.3,11-5.2,16-8.7c0.5,0.5,1,1.1,1.5,1.6c-5.3,3.6-10.9,6.7-16.8,9.1c0.7,2.2,1.3,4.4,1.8,6.8
			c8.2,0.4,15.7,4.1,20.4,10.6c0.3,0.4,0.5,0.8,0.8,1.2c0,0,0,0.1,0.1,0.1c0.2,0.4,0.5,0.8,0.7,1.2c3.7-10.5,5.3-25.2,5.3-45.6
			c0-33.1-3.1-54.7-10.1-68.5c0.3-1.3,0.6-2.7,0.9-4.2c4.1-23.3-8.6-30.3-17.1-31.9c-7-1.3-21.8,1.2-24.2,14
			c-6.8-0.4-14.4-0.4-22.8-0.4l-1.7,0c-9,0-17.2,0-24.5,0.5c-2.3-12.8-17.1-15.3-24.2-14.1c-8.5,1.5-21.2,8.5-17.1,31.9
			c0.3,1.6,0.6,3,0.9,4.3c-7,13.7-10.1,35.4-10.1,68.4C218.8,305.2,220.6,320,224.3,330.7z M221.9,257.6c1.3-16.6,3.8-29,8-38
			c2.4-5.2,5.3-9.3,8.7-12.5c7.6-7.1,17.9-9.6,31-10.5c7.2-0.5,15.3-0.5,24.2-0.5l1.7,0c0.6,0,1.1,0,1.7,0c7.6,0,14.5,0,20.8,0.4
			c13.2,0.8,23.5,3.3,31.2,10.5c3.4,3.2,6.2,7.3,8.6,12.5c4.3,9.5,6.9,22.5,8.1,40.2L221.9,257.6z"/>
		<path class="st0" d="M311.1,354.8c-0.1-0.4-0.2-0.7-0.4-1.1c-2.4,0-4.9,0-7.4,0c-3.1,0-6.3,0-9.6,0c-3.3,0-6.4,0-9.4,0
			c-2.5,0-5,0-7.4,0c-0.1,0.4-0.2,0.7-0.4,1.1c0,0,0,0,0,0c-0.1,0.4-0.3,0.7-0.4,1.1c2.6,0,5.4,0,8.2,0c3,0,6.2,0,9.4,0
			c3.3,0,6.5,0,9.6,0c2.8,0,5.6,0,8.2,0C311.4,355.5,311.3,355.1,311.1,354.8C311.1,354.8,311.1,354.8,311.1,354.8z"/>
		<path class="st0" d="M260.2,322.7c-4.8-2.3-9.8-3.2-14.6-2.9c-7.8,0.6-14.9,4.5-18.9,11c-0.2,0.4-0.5,0.8-0.7,1.2c0,0,0,0,0,0
			c-0.1,0.2-0.2,0.4-0.3,0.6c-0.1,0.2-0.2,0.4-0.3,0.7c-6.2,13.9,5.3,27.1,19,31.9c11.2,3.9,23.8,2.3,29.4-9.2
			c0-0.1,0.1-0.2,0.1-0.3c0.2-0.4,0.3-0.7,0.5-1.1c0,0,0,0,0,0c0.1-0.4,0.3-0.7,0.4-1.1C278.7,342.2,272.6,328.7,260.2,322.7z
			 M259.3,354.1C259.3,354.1,259.2,354.1,259.3,354.1C259.2,354.2,259.2,354.2,259.3,354.1c-0.2,0.4-0.4,0.8-0.6,1.1
			c-3.2,5-9.7,5.3-15.2,3c-5-2.2-9.2-6.6-9.1-11.6c0-0.4,0-0.9,0.1-1.3c0,0,0,0,0,0c0.1-0.4,0.2-0.8,0.3-1.2c0.2-0.5,0.3-1,0.6-1.5
			c1.6-3.2,4.6-5.3,8-6.1c2.9-0.6,6.1-0.3,9.1,1.1c6.2,3,9.2,9.8,7.1,15.6C259.6,353.5,259.4,353.8,259.3,354.1z"/>
		<path class="st0" d="M362.1,332.7c-0.1-0.2-0.2-0.4-0.3-0.6c0,0,0-0.1,0-0.1c-0.2-0.4-0.5-0.8-0.7-1.2
			c-4.1-6.6-11.2-10.4-19.1-10.9c-4.8-0.3-9.8,0.6-14.4,2.9c-13.2,6.4-18.1,20.3-14.5,31c0.1,0.4,0.3,0.7,0.4,1.1c0,0,0,0,0,0
			c0.1,0.3,0.3,0.7,0.5,1c1.1,2.3,2.6,4.4,4.6,6.2c5.9,5.4,15,6.7,24.7,3.2c1.4-0.5,2.8-1.1,4.2-1.8c12.4-6,20.5-18,15-30.2
			C362.3,333.2,362.2,332.9,362.1,332.7z M329,355.2c-0.2-0.3-0.4-0.6-0.5-1c0,0,0,0,0-0.1c0,0,0-0.1,0-0.1c-0.2-0.3-0.3-0.6-0.4-1
			c-2.1-5.8,0.9-12.6,7.1-15.6c3-1.5,6.2-1.8,9.1-1.1c3.5,0.8,6.5,2.9,8,6.1c0.3,0.6,0.5,1.1,0.6,1.7c0.1,0.4,0.2,0.8,0.3,1.2
			c0,0,0,0.1,0,0.1c0.1,0.5,0.1,0.9,0.1,1.3c0,5-4.1,9.3-9.1,11.4C338.7,360.5,332.2,360.2,329,355.2z"/>
	</g>
	<g>
		<path class="st10" d="M188.4,147.6c-26-12.2-29.7-36.7-14.5-51.7C124.2,68,59.1,104,63.4,157.5c2.5,31.6,30,52.3,67.9,52.3
			c27.2,0,56.9-10.5,70-34.2c-4.7-1.8-7.8-5.9-7.9-10.5c-0.1-7,6.8-12.1,14.1-11.7c0-0.4,0-0.8,0.1-1.2
			C201.3,152.1,194.8,150.6,188.4,147.6z M114.9,199.7c-4.4,0-8.4-2.1-10.4-5.8c-3-5.7-0.1-13.1,6.4-16.5c6.5-3.4,14.2-1.6,17.2,4.1
			C132.3,189.5,124.9,199.7,114.9,199.7z M108.7,173.3c-14.6,0-28.3-12.6-28.7-30.7c-0.5-24.8,24-44.6,47-38.4
			c4.6,1.2,8.8,3.4,12.4,6.6C164,132.2,136.2,173.3,108.7,173.3z M167.2,157.9c-0.9,0-1.8-0.6-2.1-1.5l-1.5-4.4
			c-3.1-1-7.1-6.2-5.9-9c0.6-1.3,2-2,4.4-2.8c2.4-0.8,4-1,5.2-0.3c2.5,1.5,2.3,7.6,0.7,10.3l1.6,4.5
			C170.1,156.4,168.9,157.9,167.2,157.9z"/>
		<g>
			<path class="st11" d="M111.9,179.3c-5.4,2.8-7.9,8.9-5.4,13.5c2.4,4.6,8.8,6,14.2,3.2c5.4-2.8,7.9-8.9,5.4-13.5
				C123.8,178,117.5,176.3,111.9,179.3z"/>
			<path class="st11" d="M195.6,165.1c0,3.7,2.7,7.1,6.7,8.6c2.8-5.6,4.5-11.7,5-18.1C201.4,155.2,195.6,159.4,195.6,165.1z"/>
		</g>
		<g>
			<path class="st0" d="M87.4,76.3c-8.7,0-16.3,4.9-18.7,9.7c-4.7,9.5-1.1,22,5.4,28.3c8.5-11.3,19.9-19.7,32.9-24.7
				C103,81.4,96.3,76.3,87.4,76.3z"/>
			<path class="st0" d="M118.2,71.2c-4.8,4.8-5.5,10.6-4.5,16.2c15-4.3,30.9-4.3,45.5,0C154.7,68.3,132.4,57,118.2,71.2z"/>
			<path class="st0" d="M138,112.4c-5.4-4.7-12.2-7.2-19.5-7.2c-19.8,0-36.6,17.5-36.2,37.3c0.2,8.8,3.7,16.7,10,22.2
				C120.2,189.1,165.9,136.8,138,112.4z M136,152.3c-3.7,4.3-10.3,4.9-14.3,1.4c-4.1-3.6-4-10-0.3-14.2c3.8-4.3,10.1-5,14.1-1.6h0
				C139.4,141.5,139.7,148.1,136,152.3z"/>
			<path class="st0" d="M175.9,97.1c-2.6,2.5-4.7,5.4-6.3,8.7c-6.9,14.8,1.2,31.2,19.7,39.8c6,2.8,12.3,4.3,18.2,4.4
				C207.4,129.3,196.1,109.2,175.9,97.1z M191.8,138.2c-8.4,0-13.5-9.5-9-15.9v0c3-4.3,9.3-5.2,14-2c4.7,3.3,6.2,9.5,3.2,13.8
				C198.1,136.7,195,138.2,191.8,138.2z"/>
			<path class="st0" d="M166.1,141.9c-0.1-0.1-0.3-0.1-0.6-0.1c-1,0-5.5,1.2-5.9,2.2c-0.1,0.3,0,1.1,0.7,2.3
				c1.1,1.9,2.9,3.6,4.2,3.8l2.3,5.8c0.1,0.2,1.1-0.2,1-0.4l-2.1-6C167.5,147.4,167.1,142.5,166.1,141.9z"/>
			<path class="st0" d="M128.8,140.1c-1.9,1.3-2.2,4.1-0.8,6.1c1.4,2,4.1,2.6,6,1.3c1.8-1.2,2.1-3.9,0.7-6
				C133.2,139.6,130.6,138.9,128.8,140.1z"/>
			<path class="st0" d="M195,122.7c-3.9-0.6-5.9,3.6-3.6,6.7c1.6,2.1,4.2,2.5,5.9,1.2C200.1,128.6,199.1,123.4,195,122.7z"/>
		</g>
	</g>
	<path class="st12" d="M190,255.5c-0.4-0.8-0.8-1.3-1.8-1.3c-3.9-0.1-8.6,0.1-12.1-2.5c-1.4-1-1.4-1.5-2.5-6.4
		c-2.2-10-13.9-10.8-20.8-7.4c-1.2,0.6-1.5,1.6-0.7,2.7c3.8,5.6,6.4,10.1,12.8,11.7c3.1,0.8,9.1,1.7,13.1,3.3
		c-0.8,0.4-13.8,4.4-19,4.8c-2.8,0.2-5.4-0.4-7.9-1.5c-5-2.2-0.3-6-5.7-14.1c-5.3-8-14.4-9.8-21.6-5.8c-2.7,1.5-1,3.1,1.2,7.7
		c2.3,4.8,3.6,10.9,11.7,12.3c1,0.2,6.6,0.9,9.9,1.9c1.9,0.5,3.7,1.3,5.6,1.7c0.1,0,0.2,0.1,0.3,0.2c-0.2,0.1-0.3,0.1-0.4,0.1
		c-27.9,5.4-41.3-10.2-37.5-16.8c6-10.3,2.9-17.2-4.6-20.2c-1.7-0.7-2.6-0.2-3.3,1.5c-0.9,2.2-1.8,4.3-2.6,6.5
		c-4.4,11.6,3,12.7,6.3,17.7c1.4,2.2,3,4.3,5,6.1c0.1,0.1,0.1,0.2,0.3,0.4c-3.6-1.7-6.8-3.6-9.8-5.9c-8.3-6-0.7-14.9-10.4-21.1
		c-1.1-0.7-2.3-1.4-3.5-1.9c-1.1-0.4-8.8-3-10.2-3c-1.4,0-1.7,0.9-1.7,2.4c0.3,9.9,0.2,21.1,14.2,22c3.2,0.2,5.8,0,7.9,1.7
		c12.1,10.2,24.6,12.1,28.5,13.1c-1.8,0.7-3.3,1.3-4.9,1.7c-4.9,1.2-13.5,2.2-16,12.6c-0.2,1,0,1.8,0.8,2.3
		c6.1,4.1,15.2,3.1,18.5-3.8c3-6.2,0.3-9.8,4.3-10.9c9.1-2.5,10.2,1.1,33.7-6c-0.1,0.4-0.3,0.6-0.6,0.9c-1.5,1.6-3.1,3.2-4.5,4.8
		c-6.4,7.3-17.8,4.3-14.3,20.6c0.5,2.2,1.2,2.7,3.4,2.3c7.8-1.3,16-4.7,14.3-12.6c-0.1-0.3-1.5-4.5-2.1-6.6c-0.2-0.8,0-1.5,0.6-2.1
		c3.7-4.4,9.8-9.5,13.9-10.6c2.8-0.7,6.1-1.4,8.9-1.6C187.7,256.7,190.7,257.2,190,255.5z"/>
	<path class="st12" d="M347.9,117.2c-2.9-2-5.9-4.1-8.9-6c-5.8-3.8-12.2-2.6-16.6,0.7c-4.3,3.2-5.1,4.5-8.1,5.3
		c-17.9,5-27.8,17.2-34.4,22.1c0.6-1.9,4.3-5.1,6.4-8.7c6.5-11.2-0.2-19.4-3.7-24.2c-1.2-1.7-3.4-0.5-4.1,0.1
		c-7.7,6.5-9.1,13.7-6.1,20.8c2.3,5.6,7,8.5,0.8,15.4c-1.9,2.2-4,4.2-6.8,5.4c-9.4,4.1-16.8,3.4-23.7,3.1c-1,0-2.8-0.6-3.5,0.3
		c-1.4,1.8,2.5,3,3.6,3.1c18.2,0.7,4.5-1.1,30.4,0.1c3.9,0.2,3.4,12.3,14.3,12.5c6.8,0.1,12.2-2.7,16.8-7.7c2.2-2.4-0.4-3.2-5.3-6.3
		c-5.3-3.4-10.2-4.3-16.9-2.2c-5.1,1.6-4.4,1.6-16.7,0.5c22.4-9.8,21.6-19.9,38-21.8c2.6-0.3,6.8-0.1,8.3,1.9c1,1.2,0.1,1.8-1,3.7
		c-2.1,3.7-2.2,7.4,0.1,11c0.9,1.3,2,2.5,3.2,3.6c1.8,1.7,2.3,1,8.3-4.1c5.6-4.6,6.6-12.5-6.1-17.5c-8.1-3.2-13.3-1.9-15.2-1.7
		c0.4-0.9,7.1-4.4,12.8-6.2c5.1-1.7,7,3,11.5,6c5.3,3.6,12.6,3.3,17.5-0.7c2.3-1.9,5.1-5.3,5.5-6.2
		C348.9,118.5,348.8,117.8,347.9,117.2z"/>
	<g>
		<g>
			<path class="st11" d="M163.3,316.1c-3-0.3-4.7,1.5-5,4.1c-0.3,2.6,1,5,4,5.3c3,0.3,5.2-1.4,5.5-4
				C168.1,319,166.5,316.4,163.3,316.1z"/>
			<path class="st11" d="M176.3,316.1c-3-0.3-4.7,1.5-5,4.1c-0.3,2.6,1,5,4,5.3c3,0.3,5.2-1.4,5.5-4
				C181.1,319,179.5,316.4,176.3,316.1z"/>
			<path class="st11" d="M189.4,316.1c-3-0.3-4.7,1.5-5,4.1c-0.3,2.6,1,5,4,5.3c3,0.3,5.2-1.4,5.5-4
				C194.1,319,192.5,316.4,189.4,316.1z"/>
		</g>
		<g>
			<g>
				<path class="st0" d="M125.4,330.5c-0.3,1.3-1.7,1-3.2,1c0,0,0,0,0,0c-0.5,0-1.1,0-1.6,0c-2.1-0.1-2.1-1.5-1.4-2.2
					c0.4-0.4,0.9-0.2,0.9-1.9c0-3.3-0.8-13.3-0.8-13.6c-0.1-0.6,0-1.2-0.5-1.4c-0.6-0.3-0.8-0.8-0.8-1.5c0-0.5,0.1-0.7,0.6-0.8
					c0.8-0.2,1.2-0.2,2-0.2c0.8,0,1.7,0.2,2.5,0.3c1.1,0.2,1.5,1.3,0.8,2.1c-0.5,0.6-0.6,1.3-0.6,2c0,1,0.3,9.9,0.7,13.5
					c0.1,0.5,0.2,1,0.8,1.3C125.3,329.3,125.5,329.9,125.4,330.5z"/>
				<path class="st0" d="M130.8,311.1c0.2,1.2,0.4,4.2,0,5.5c-0.2,0.9-0.8,0.9-2.1,0.9c-0.7,0-1-0.3-1.1-1c0-0.4-0.1-0.9-0.1-1.3
					c-0.1-4-0.3-5,1.5-5.2C130.4,309.9,130.7,310.3,130.8,311.1z"/>
				<path class="st0" d="M152.8,330.3c-0.3,1.5-1.4,1.2-3.1,1.2c-0.6,0-0.9-0.4-0.9-1c0-0.4-0.2-13.2-0.6-14.3c-0.3-1-0.9-1.7-2-1.6
					c-0.6,0.1-1.3,0.9-1.4,1.6c-0.2,2.2-0.1,13.2-0.2,13.9c-0.2,1.6-0.2,1.3-2.5,1.3c-2.3,0-0.9-5.2-1.7-15
					c-0.2-1.9-3.1-2.5-3.4-0.2c-0.1,0.3,0.4,11.9,0.4,14c0,0.8-0.3,1.2-1.1,1.2c-1.6,0.1-2.5,0-2.7-1c-0.2-0.7-0.5-18.7-0.5-18.8
					c0-1.5,0.9-1.6,2.7-1.6c0.8,0,0.8,0.3,1.1,1.3c2.2-2.1,5.2-1.4,6.2,1.7c3.3-5.4,8-2.6,8.6,0.9
					C152.8,320.5,152.8,330.1,152.8,330.3z"/>
			</g>
			<g>
				<path class="st0" d="M85.8,347.7c-5.3,1.4-4.9-2-4.9,5.7c0,0.5-0.1,1-0.1,1.6c-0.1,0.9-1.8,1-2.4,0.8c-0.7-0.2-1.1-0.6-1.1-1.3
					c0-0.1-0.1-6.5-0.3-17.9c0-1.6,0.3-1.9,2-2.1c0.9-0.1,1.8,0.1,2,1c0.3,1-0.2,1.3,1.4,1.3c2.6,0,4.7-0.3,5.3,2.8
					C88.1,342.9,87.7,347.5,85.8,347.7z M84.5,340.9c-0.2-1.1-0.8-1.6-1.9-1.6c-2,0-2.7-0.4-2.2,4.6c0.2,2.1,3.6,2.2,3.9,0.8
					C84.4,343.9,84.5,341.4,84.5,340.9z"/>
				<path class="st0" d="M90.8,352.2c-0.7-2.2-1.1-4.4-0.9-6.7c0.2-1.6,0.9-2.4,2.5-2.7c1.4-0.3,5.1-0.6,7.4-0.5
					c0.7,0,0.9-0.1,0.9-0.8c0-3.4,0-5-5.2-4.6c-1.5,0.1-0.9,1.2-0.8,2.9c0.2,1.6-1.2,2.3-2.5,2.2c-1.1-0.1-1.3-0.4-1.3-1.5
					c0.1-3.4,0-5.9,4.8-6c2.9-0.1,6.8-0.3,7.3,2.5c0.2,1.3,0.8,12.9,0.9,17.4c0,0.9-0.3,1.3-1.1,1.4c-1.7,0.3-2-0.4-2.4-1.6
					C95.9,354.6,91.8,355.2,90.8,352.2z M100.1,350.4c0.1-0.4,0.3-3,0.3-3.9c0-0.9-0.2-1.2-1.1-1.3c-1.3-0.2-2.6-0.1-3.8,0.2
					c-1.8,0.4-1.3,3.3-0.7,5.1c0.1,0.4,0.5,0.7,0.9,0.8c0.7,0.2,2.7,0.3,3.1,0.2C99.5,351.5,99.9,351.1,100.1,350.4z"/>
				<path class="st0" d="M119.7,355.8c-2.7,0-2.9,0.3-2.9-1.3c0-1.8-0.2-11.8-0.2-13.2c0.1-2-1-2.4-1.9-2.7
					c-2.5-0.7-4.6,0.8-4.7,3.7c0,0.6,0.2,11.4,0.2,12.3c0,1-0.3,1.5-3.1,1.3c-2.2-0.1-0.6-2.3-1.1-20c0-1.2,0.3-1.6,1.5-1.7
					c1.8-0.2,1.8,0.5,2.3,2.2c0.3-0.2,1.2-1.4,3.2-1.7c2.9-0.2,4.3,0.3,5.2,0.9c1.5,1,1.6,2.2,1.9,3.7c0.2,1.2,0.5,11,0.5,15
					C120.5,354.7,120.6,355.8,119.7,355.8z"/>
				<path class="st0" d="M134.8,355.7c-1.5,0.3-2.1-0.2-2.3-0.9c-0.5-1.4-2.3,0.2-7.1-0.8c-1.5-0.3-2.3-1.3-2.6-2.7
					c-0.3-1.5-0.2-6.6-0.2-7.6c0.3-5.2,6.3-3.7,8.5-4c1.3-0.2,0.6-0.5,0.8-3.4c0.1-1.6,0.6-2.3,3.2-1.6c0.6,0.2,0.9,0.6,1,1.3
					c0.1,0.6,0.4,16.3,0.1,18.3C136,355.1,135.6,355.6,134.8,355.7z M126.8,342.8c-0.7,0.2-0.9,0.5-0.9,1.4c0,1.3,0.2,4.9,0.3,5.4
					c0.3,1.8,2.5,2,4.2,1.6c1.4-0.3,1.6-0.6,1.7-2.1c0.2-5.8,0.3-6.1-0.6-6.4C129.8,342.3,128.3,342.4,126.8,342.8z"/>
				<path class="st0" d="M139.2,352.2c-0.7-2.2-1.1-4.4-0.9-6.7c0.2-1.6,0.9-2.4,2.5-2.7c1.4-0.3,5.1-0.6,7.4-0.5
					c0.7,0,0.9-0.1,0.9-0.8c0-3.4,0-5-5.2-4.6c-1.5,0.1-0.9,1.2-0.8,2.9c0.2,1.6-1.2,2.3-2.5,2.2c-1.1-0.1-1.3-0.4-1.3-1.5
					c0.1-3.4,0-5.9,4.8-6c2.9-0.1,6.8-0.3,7.3,2.5c0.2,1.3,0.8,12.9,0.9,17.4c0,0.9-0.3,1.3-1.1,1.4c-1.7,0.3-2-0.4-2.4-1.6
					C144.3,354.6,140.1,355.2,139.2,352.2z M148.4,350.4c0.1-0.4,0.3-3,0.3-3.9c0-0.9-0.2-1.2-1.1-1.3c-1.3-0.2-2.6-0.1-3.8,0.2
					c-1.8,0.4-1.3,3.3-0.7,5.1c0.1,0.4,0.5,0.7,0.9,0.8c0.7,0.2,2.7,0.3,3.1,0.2C147.9,351.5,148.3,351.1,148.4,350.4z"/>
				<path class="st0" d="M154.7,352.5c0.4-0.9,2-0.5,4.1-0.8c2.9-0.5,1.5-5.1-0.8-7c-2-1.7-4.4-3.4-3.4-8.6c0.2-0.9,0.8-1.5,1.7-1.6
					c1.6-0.1,3.3-0.1,4.9,0.3c0.7,0.2,1,0.6,1.1,1.4c0.2,3.2-4,0.5-3.5,3.3c0.3,1.7,1.1,1.9,3.5,4.2c2.4,2.6,2,6.3,2,7.5
					c0.1,2.5-1.1,4.3-3.9,4.5c-0.5,0.1-3.2,0-4-0.1C155,355.5,154.1,354,154.7,352.5z"/>
				<path class="st0" d="M174.7,341c-1.3,0.1-2.1-0.2-2.1,1.5c0.3,12.5,2,13.4-1,13.4c-3.2,0-2-1.8-2.1-5.3
					c-0.3-9.8,0.2-9.7-1.4-9.7c-1.1,0-1.8-0.2-1.7-2.1c0-0.7,0.3-1,1-1.1c2.2-0.3,2,0.4,2.2-2.3c0.1-0.8,0.7-1,1.5-1
					c1,0,1.4,0.3,1.6,1.3c0.5,2.3,0,1.8,2,1.9c0.8,0,1.2,0.4,1.3,1.2C176,339.9,175.8,340.8,174.7,341z"/>
				<path class="st0" d="M178.1,336.8c-0.4-2.3,0.5-2.3,2.6-2.3c0.2,0,0.4,0.1,0.6,0.2c0.8,0.6,0.6,1.4,0.5,2.2
					c-0.1,0.6-0.6,0.9-1.3,1c-0.2,0-0.5,0-0.8,0C178.7,337.9,178.3,337.7,178.1,336.8z M182,354.4c0,0.9-0.4,1.5-2.1,1.3
					c-0.8-0.1-1.2-0.5-1.2-1.3c-0.2-2.5-0.7-13.7-0.6-14.5c0.1-1.3,0.6-1.2,2.7-1.2c0.4,0,0.7,0.2,0.8,0.6
					C181.6,339.6,182,352.1,182,354.4z"/>
				<path class="st0" d="M192,355.8c-1.8,0.1-3.6,0.1-5.3-0.4c-1-0.3-1.6-0.9-1.9-2c-0.5-2.5-1.2-10.1-0.4-16.8c0.1-1.2,0.8-2,2-2
					c1.9-0.1,3.8-0.2,5.7,0.1c0.9,0.1,1.4,0.3,1.3,2.2c-0.1,0.7-0.2,1-0.9,1.1c-3,0.4-3.9-0.4-4.2,1.3c-0.2,0.9-0.1,9.8,0.5,11.9
					c0.6,1.8,2.3,0.6,4,1c0.7,0.1,1,0.5,1.1,1.3C194,355.2,193.3,355.7,192,355.8z"/>
			</g>
		</g>
		<g>
			<path class="st11" d="M107.4,316.1c3-0.3,4.7,1.5,5,4.1c0.3,2.6-1,5-4,5.3c-3,0.3-5.2-1.4-5.5-4
				C102.7,319,104.3,316.4,107.4,316.1z"/>
			<path class="st11" d="M94.4,316.1c3-0.3,4.7,1.5,5,4.1c0.3,2.6-1,5-4,5.3c-3,0.3-5.2-1.4-5.5-4C89.7,319,91.3,316.4,94.4,316.1z"
				/>
			<path class="st11" d="M81.4,316.1c3-0.3,4.7,1.5,5,4.1c0.3,2.6-1,5-4,5.3c-3,0.3-5.2-1.4-5.5-4C76.7,319,78.3,316.4,81.4,316.1z"
				/>
		</g>
	</g>
</g>
</svg>
